<svg width="20" height="20" viewBox="0 0 20 20" fill="none" xmlns="http://www.w3.org/2000/svg">
<path d="M11.6663 12.5L8.33301 15.8333L11.6663 19.1667" stroke="#F8E700" stroke-width="2"/>
<path d="M15.0515 7.08335C15.5635 7.97013 15.833 8.97606 15.833 10C15.833 11.024 15.5635 12.0299 15.0515 12.9167C14.5395 13.8035 13.8031 14.5399 12.9163 15.0518C12.0296 15.5638 11.0236 15.8334 9.99967 15.8334" stroke="#F8E700" stroke-width="2" stroke-linecap="round"/>
<path d="M8.33366 7.5L11.667 4.16667L8.33366 0.833334" stroke="#F8E700" stroke-width="2"/>
<path d="M4.94851 12.9166C4.43653 12.0299 4.16699 11.0239 4.16699 9.99998C4.16699 8.97601 4.43653 7.97009 4.94851 7.08331C5.46049 6.19653 6.19688 5.46015 7.08366 4.94816C7.97044 4.43618 8.97636 4.16664 10.0003 4.16665" stroke="#F8E700" stroke-width="2" stroke-linecap="round"/>
</svg>
