<svg width="20" height="20" viewBox="0 0 20 20" fill="none" xmlns="http://www.w3.org/2000/svg">
<path d="M17.3082 16.2748C17.3082 16.5748 17.2415 16.8832 17.0998 17.1832C16.9582 17.4832 16.7748 17.7665 16.5332 18.0332C16.1248 18.4832 15.6748 18.8082 15.1665 19.0165C14.6665 19.2248 14.1248 19.3332 13.5415 19.3332C12.6915 19.3332 11.7832 19.1332 10.8248 18.7248C9.8665 18.3165 8.90817 17.7665 7.95817 17.0748C6.99984 16.3748 6.0915 15.5998 5.22484 14.7415C4.3665 13.8748 3.5915 12.9665 2.89984 12.0165C2.2165 11.0665 1.6665 10.1165 1.2665 9.17484C0.866504 8.22484 0.666504 7.3165 0.666504 6.44984C0.666504 5.88317 0.766504 5.3415 0.966504 4.8415C1.1665 4.33317 1.48317 3.8665 1.92484 3.44984C2.45817 2.92484 3.0415 2.6665 3.65817 2.6665C3.8915 2.6665 4.12484 2.7165 4.33317 2.8165C4.54984 2.9165 4.7415 3.0665 4.8915 3.28317L6.82484 6.00817C6.97484 6.2165 7.08317 6.40817 7.15817 6.5915C7.23317 6.7665 7.27484 6.9415 7.27484 7.09984C7.27484 7.29984 7.2165 7.49984 7.09984 7.6915C6.9915 7.88317 6.83317 8.08317 6.63317 8.28317L5.99984 8.9415C5.90817 9.03317 5.8665 9.1415 5.8665 9.27484C5.8665 9.3415 5.87484 9.39984 5.8915 9.4665C5.9165 9.53317 5.9415 9.58317 5.95817 9.63317C6.10817 9.90817 6.3665 10.2665 6.73317 10.6998C7.10817 11.1332 7.50817 11.5748 7.9415 12.0165C8.3915 12.4582 8.82484 12.8665 9.2665 13.2415C9.69984 13.6082 10.0582 13.8582 10.3415 14.0082C10.3832 14.0248 10.4332 14.0498 10.4915 14.0748C10.5582 14.0998 10.6248 14.1082 10.6998 14.1082C10.8415 14.1082 10.9498 14.0582 11.0415 13.9665L11.6748 13.3415C11.8832 13.1332 12.0832 12.9748 12.2748 12.8748C12.4665 12.7582 12.6582 12.6998 12.8665 12.6998C13.0248 12.6998 13.1915 12.7332 13.3748 12.8082C13.5582 12.8832 13.7498 12.9915 13.9582 13.1332L16.7165 15.0915C16.9332 15.2415 17.0832 15.4165 17.1748 15.6248C17.2582 15.8332 17.3082 16.0415 17.3082 16.2748Z" stroke="#E4B13B" stroke-width="1.2" stroke-miterlimit="10"/>
<path d="M14.4167 8.49967C14.4167 7.99967 14.025 7.23301 13.4417 6.60801C12.9083 6.03301 12.2 5.58301 11.5 5.58301" stroke="#E4B13B" stroke-width="1.2" stroke-linecap="round" stroke-linejoin="round"/>
<path d="M17.3333 8.49984C17.3333 5.27484 14.725 2.6665 11.5 2.6665" stroke="#E4B13B" stroke-width="1.2" stroke-linecap="round" stroke-linejoin="round"/>
</svg>
