<svg width="26" height="26" viewBox="0 0 26 26" fill="none" xmlns="http://www.w3.org/2000/svg">
<path d="M23.8332 17.5392C23.8332 21.4825 21.4823 23.8333 17.539 23.8333H16.2498C15.654 23.8333 15.1665 23.3458 15.1665 22.75V16.4992C15.1665 16.2067 15.4048 15.9575 15.6973 15.9575L17.604 15.925C17.7557 15.9142 17.8857 15.8059 17.9182 15.6542L18.2974 13.585C18.3299 13.39 18.1782 13.2058 17.9723 13.2058L15.6648 13.2383C15.3615 13.2383 15.1232 13 15.1124 12.7075L15.069 10.0533C15.069 9.88 15.2098 9.72835 15.394 9.72835L17.994 9.68501C18.1782 9.68501 18.319 9.54419 18.319 9.36002L18.2757 6.75999C18.2757 6.57583 18.1348 6.43501 17.9507 6.43501L15.0257 6.47835C13.2273 6.51085 11.7974 7.98417 11.8299 9.7825L11.884 12.7617C11.8948 13.065 11.6565 13.3033 11.3532 13.3142L10.0532 13.3358C9.869 13.3358 9.72818 13.4767 9.72818 13.6608L9.76068 15.7192C9.76068 15.9033 9.9015 16.0442 10.0857 16.0442L11.3857 16.0225C11.689 16.0225 11.9273 16.2608 11.9382 16.5533L12.0357 22.7284C12.0465 23.335 11.559 23.8333 10.9523 23.8333H8.46067C4.51733 23.8333 2.1665 21.4825 2.1665 17.5283V8.46084C2.1665 4.5175 4.51733 2.16667 8.46067 2.16667H17.539C21.4823 2.16667 23.8332 4.5175 23.8332 8.46084V17.5392Z" fill="white"/>
</svg>
