<svg width="26" height="26" viewBox="0 0 26 26" fill="none" xmlns="http://www.w3.org/2000/svg">
<path d="M12.9998 16.0549C14.679 16.0549 16.0548 14.679 16.0548 12.9999C16.0548 11.3207 14.679 9.94485 12.9998 9.94485C11.3207 9.94485 9.94482 11.3207 9.94482 12.9999C9.94482 14.679 11.3207 16.0549 12.9998 16.0549Z" fill="white"/>
<path d="M18.5687 2.16684H7.43198C4.52864 2.16684 2.16699 4.52851 2.16699 7.43184V18.5685C2.16699 21.4718 4.52864 23.8335 7.43198 23.8335H18.5687C21.472 23.8335 23.8337 21.4718 23.8337 18.5685V7.43184C23.8337 4.52851 21.472 2.16684 18.5687 2.16684ZM18.5795 8.56934C17.962 8.56934 17.4637 8.07101 17.4637 7.46434C17.4637 6.84684 17.962 6.34851 18.5795 6.34851C19.1862 6.34851 19.6845 6.84684 19.6845 7.46434C19.6845 8.07101 19.1862 8.56934 18.5795 8.56934ZM13.0003 8.32017C15.5787 8.32017 17.6803 10.4218 17.6803 13.0002C17.6803 15.5785 15.5787 17.6802 13.0003 17.6802C10.422 17.6802 8.32032 15.5785 8.32032 13.0002C8.32032 10.4218 10.422 8.32017 13.0003 8.32017Z" fill="white"/>
</svg>
