<svg width="403" height="884" viewBox="0 0 403 884" fill="none" xmlns="http://www.w3.org/2000/svg">
<g opacity="0.5">
<path opacity="0.0344828" d="M-90.4582 334.579C-179.396 409.207 -252.886 485.097 -299.809 547.449C-323.276 578.631 -340.064 606.383 -348.832 628.868C-353.216 640.111 -355.575 649.988 -355.788 658.289C-356.001 666.581 -354.073 673.238 -349.952 678.149C-345.831 683.06 -339.61 686.115 -331.407 687.345C-323.195 688.577 -313.058 687.969 -301.225 685.604C-277.559 680.873 -247.314 669.159 -212.53 651.464C-142.977 616.081 -55.4785 556.886 33.4592 482.258C122.397 407.631 195.886 331.74 242.81 269.388C266.276 238.206 283.065 210.454 291.832 187.969C296.217 176.726 298.576 166.849 298.789 158.548C299.001 150.256 297.074 143.6 292.953 138.689C288.832 133.777 282.611 130.722 274.407 129.492C266.195 128.26 256.059 128.868 244.225 131.233C220.56 135.964 190.314 147.678 155.531 165.373C85.9776 200.756 -1.52052 259.952 -90.4582 334.579Z" stroke="#2B2C3B" stroke-width="2"/>
<path opacity="0.0689655" d="M-96.6584 343.618C-178.753 425.713 -245.349 507.719 -286.66 573.923C-307.32 607.032 -321.625 636.141 -328.4 659.305C-331.788 670.887 -333.277 680.932 -332.766 689.22C-332.255 697.5 -329.754 703.963 -325.22 708.496C-320.687 713.03 -314.224 715.53 -305.945 716.041C-297.657 716.552 -287.612 715.063 -276.029 711.676C-252.866 704.901 -223.757 690.595 -190.648 669.936C-124.443 628.625 -42.4365 562.029 39.6586 479.934C121.754 397.839 188.349 315.833 229.66 249.628C250.319 216.519 264.625 187.41 271.4 164.246C274.787 152.664 276.277 142.619 275.765 134.331C275.254 126.052 272.754 119.589 268.22 115.056C263.687 110.522 257.224 108.021 248.944 107.51C240.656 106.999 230.611 108.488 219.029 111.876C195.865 118.651 166.756 132.956 133.647 153.616C67.4427 194.926 -14.5633 261.522 -96.6584 343.618Z" stroke="#2B2C3B" stroke-width="2"/>
<path opacity="0.103448" d="M-102.34 353.176C-176.967 442.114 -236.162 529.612 -271.546 599.165C-289.241 633.948 -300.955 664.194 -305.686 687.86C-308.051 699.693 -308.659 709.83 -307.427 718.041C-306.197 726.245 -303.142 732.466 -298.23 736.587C-293.319 740.708 -286.663 742.636 -278.371 742.423C-270.07 742.21 -260.193 739.851 -248.95 735.467C-226.465 726.699 -198.713 709.911 -167.531 686.444C-105.179 639.52 -29.2881 566.031 45.3395 477.093C119.967 388.156 179.162 300.657 214.545 231.104C232.24 196.32 243.955 166.075 248.685 142.409C251.05 130.576 251.658 120.439 250.426 112.227C249.196 104.024 246.141 97.8034 241.23 93.6825C236.319 89.5615 229.662 87.633 221.37 87.8458C213.069 88.0588 203.192 90.4179 191.949 94.802C169.464 103.57 141.712 120.358 110.53 143.825C48.1777 190.748 -27.712 264.238 -102.34 353.176Z" stroke="#2B2C3B" stroke-width="2"/>
<path opacity="0.137931" d="M-107.459 363.206C-174.051 458.309 -225.395 550.634 -254.582 623.006C-269.178 659.199 -278.212 690.351 -280.861 714.338C-282.186 726.333 -281.908 736.484 -279.966 744.557C-278.025 752.623 -274.439 758.553 -269.188 762.231C-263.936 765.908 -257.137 767.248 -248.895 766.314C-240.644 765.378 -231.01 762.167 -220.192 756.82C-198.557 746.125 -172.374 726.982 -143.355 700.887C-85.3303 648.708 -16.1336 568.884 50.4586 473.78C117.051 378.677 168.394 286.352 197.581 213.98C212.177 177.786 221.211 146.635 223.86 122.647C225.185 110.653 224.908 100.501 222.965 92.4282C221.024 84.3632 217.439 78.4328 212.188 74.7556C206.936 71.0783 200.136 69.7373 191.894 70.672C183.643 71.6077 174.009 74.8187 163.191 80.166C141.556 90.8602 115.373 110.003 86.3546 136.098C28.3294 188.278 -40.8664 268.102 -107.459 363.206Z" stroke="#2B2C3B" stroke-width="2"/>
<path opacity="0.172414" d="M-111.977 373.656C-170.027 474.201 -213.129 570.649 -235.897 645.29C-247.283 682.618 -253.567 714.438 -254.116 738.565C-254.391 750.63 -253.229 760.718 -250.59 768.591C-247.954 776.456 -243.865 782.052 -238.313 785.258C-232.761 788.463 -225.871 789.206 -217.742 787.556C-209.604 785.905 -200.286 781.867 -189.975 775.597C-169.355 763.058 -144.94 741.706 -118.306 713.181C-65.0495 656.143 -3.07324 570.592 54.9767 470.046C113.027 369.501 156.128 273.052 178.896 198.412C190.282 161.084 196.567 129.264 197.115 105.136C197.39 93.0717 196.229 82.9835 193.59 75.1102C190.953 67.245 186.865 61.6497 181.313 58.4442C175.761 55.2386 168.87 54.4953 160.741 56.1449C152.603 57.7961 143.285 61.8345 132.975 68.1043C112.354 80.6434 87.939 101.996 61.3052 130.52C8.04859 187.559 -53.9268 273.11 -111.977 373.656Z" stroke="#2B2C3B" stroke-width="2"/>
<path opacity="0.206897" d="M-115.859 384.473C-164.925 489.695 -199.457 589.533 -215.634 665.874C-223.723 704.052 -227.21 736.299 -225.654 760.382C-224.876 772.425 -222.84 782.373 -219.525 789.987C-216.213 797.592 -211.652 802.81 -205.841 805.52C-200.031 808.229 -193.103 808.368 -185.148 806.017C-177.185 803.663 -168.255 798.827 -158.53 791.683C-139.08 777.394 -116.619 753.995 -92.5731 723.258C-44.4903 661.795 9.79384 571.168 58.8598 465.946C107.926 360.723 142.457 260.885 158.633 184.544C166.723 146.366 170.21 114.12 168.654 90.0359C167.875 77.9936 165.839 68.045 162.524 60.4316C159.212 52.8262 154.652 47.6084 148.842 44.899C143.031 42.1895 136.102 42.0496 128.147 44.4014C120.184 46.7557 111.254 51.5908 101.529 58.7354C82.0799 73.024 59.6189 96.4228 35.5726 127.16C-12.5102 188.623 -66.7934 279.251 -115.859 384.473Z" stroke="#2B2C3B" stroke-width="2"/>
<path opacity="0.241379" d="M-119.078 395.601C-158.786 504.699 -184.485 607.167 -193.946 684.627C-198.678 723.365 -199.341 755.793 -195.692 779.649C-193.867 791.578 -190.972 801.311 -187.006 808.607C-183.044 815.895 -178.045 820.695 -172.021 822.888C-165.996 825.081 -159.082 824.616 -151.362 821.58C-143.635 818.541 -135.16 812.946 -126.095 804.981C-107.965 789.051 -87.6288 763.784 -66.3529 731.067C-23.8099 665.648 22.369 570.634 62.0775 461.536C101.786 352.438 127.484 249.97 136.945 172.51C141.677 133.772 142.34 101.344 138.691 77.4877C136.866 65.559 133.971 55.8257 130.005 48.5303C126.043 41.2424 121.045 36.442 115.02 34.2492C108.996 32.0565 102.081 32.521 94.3614 35.5572C86.6338 38.5965 78.1592 44.1916 69.0939 52.1565C50.9638 68.0859 30.6276 93.3533 9.35179 126.07C-33.1912 191.489 -79.3691 286.503 -119.078 395.601Z" stroke="#2B2C3B" stroke-width="2"/>
<path opacity="0.275862" d="M-121.606 406.977C-151.655 519.121 -168.326 623.438 -171 701.428C-172.337 740.432 -170.171 772.794 -164.457 796.241C-161.599 807.965 -157.867 817.409 -153.28 824.331C-148.698 831.246 -143.3 835.593 -137.107 837.252C-130.915 838.912 -124.067 837.846 -116.642 834.149C-109.208 830.447 -101.254 824.135 -92.917 815.41C-76.2443 797.961 -58.1877 771.018 -39.8442 736.572C-3.16483 667.693 34.5574 569.016 64.6062 456.873C94.6551 344.729 111.325 240.411 113.999 162.421C115.336 123.418 113.171 91.0558 107.456 67.6082C104.599 55.8839 100.866 46.44 96.279 39.518C91.6969 32.6032 86.2998 28.2566 80.1073 26.5973C73.9146 24.938 67.0666 26.0034 59.6408 29.7008C52.2075 33.4021 44.2528 39.7144 35.9161 48.4392C19.2435 65.8881 1.18683 92.8318 -17.1566 127.278C-53.836 196.156 -91.5573 294.833 -121.606 406.977Z" stroke="#2B2C3B" stroke-width="2"/>
<path opacity="0.310345" d="M-123.426 418.545C-143.587 532.881 -151.102 638.254 -146.969 716.181C-144.902 755.152 -139.924 787.202 -132.187 810.063C-128.319 821.493 -123.777 830.576 -118.605 837.072C-113.437 843.561 -107.681 847.421 -101.367 848.534C-95.0537 849.647 -88.3253 847.989 -81.2502 843.658C-74.1678 839.323 -66.7936 832.342 -59.249 822.924C-44.1605 804.088 -28.5209 775.673 -13.2494 739.759C17.2873 667.946 46.2657 566.357 66.4262 452.021C86.5868 337.685 94.1014 232.312 89.9678 154.385C87.9006 115.414 82.9227 83.3637 75.1863 60.5034C71.3179 49.0728 66.7763 39.9902 61.6036 33.4942C56.4363 27.0051 50.6809 23.1454 44.3673 22.0321C38.0535 20.9189 31.3245 22.577 24.2492 26.9077C17.1668 31.2427 9.79253 38.2243 2.24798 47.6424C-12.8405 66.4781 -28.4801 94.8929 -43.7516 130.807C-74.2882 202.62 -103.266 304.209 -123.426 418.545Z" stroke="#2B2C3B" stroke-width="2"/>
<path opacity="0.344828" d="M-124.524 430.24C-134.642 545.898 -132.945 651.526 -122.036 728.795C-116.58 767.438 -108.828 798.932 -99.1283 821.031C-94.2784 832.081 -88.9624 840.734 -83.2433 846.754C-77.53 852.768 -71.4594 856.112 -65.0726 856.67C-58.686 857.229 -52.1278 854.991 -45.457 850.06C-38.7793 845.124 -32.0417 837.526 -25.3467 827.487C-11.9572 807.408 1.14632 777.738 13.2296 740.629C37.3911 666.428 57.4053 562.7 67.524 447.042C77.6428 331.384 75.9449 225.757 65.0353 148.487C59.5794 109.844 51.8271 78.3499 42.1277 56.2509C37.2778 45.2009 31.9619 36.5486 26.2427 30.5283C20.5295 24.5142 14.4596 21.1708 8.07301 20.612C1.68627 20.0533 -4.87268 22.2916 -11.5436 27.2224C-18.2212 32.1582 -24.9589 39.7559 -31.6539 49.7958C-45.0434 69.8748 -58.1469 99.5446 -70.2302 136.653C-94.3917 210.854 -114.405 314.582 -124.524 430.24Z" stroke="#2B2C3B" stroke-width="2"/>
<path opacity="0.37931" d="M-124.89 442.001C-124.89 558.101 -113.994 663.178 -96.3911 739.203C-87.588 777.223 -77.1202 807.922 -65.5317 829.092C-59.7373 839.677 -53.6874 847.833 -47.4653 853.332C-41.2496 858.825 -34.9106 861.627 -28.4995 861.627C-22.0885 861.627 -15.7503 858.825 -9.53467 853.332C-3.3126 847.833 2.73722 839.677 8.53174 829.092C20.1203 807.922 30.588 777.223 39.3911 739.203C56.9936 663.178 67.8911 558.101 67.8911 442.001C67.8911 325.901 56.9936 220.823 39.3911 144.799C30.588 106.778 20.1203 76.0795 8.53174 54.9099C2.73721 44.3247 -3.3126 36.1687 -9.53467 30.6697C-15.7503 25.1764 -22.0885 22.3748 -28.4995 22.3748C-34.9106 22.3748 -41.2496 25.1762 -47.4653 30.6697C-53.6873 36.1687 -59.7373 44.3247 -65.5317 54.9099C-77.1202 76.0795 -87.588 106.778 -96.3911 144.799C-113.994 220.823 -124.89 325.901 -124.89 442.001Z" stroke="#2B2C3B" stroke-width="2"/>
<path opacity="0.413793" d="M-124.524 453.761C-114.405 569.419 -94.3916 673.147 -70.2301 747.348C-58.1468 784.457 -45.0432 814.126 -31.6538 834.205C-24.9588 844.245 -18.2211 851.843 -11.5435 856.779C-4.87256 861.71 1.68638 863.948 8.07312 863.389C14.4597 862.83 20.5296 859.487 26.2429 853.473C31.962 847.453 37.2779 838.8 42.1278 827.75C51.8272 805.651 59.5795 774.157 65.0355 735.514C75.945 658.245 77.6429 552.617 67.5241 436.959C57.4054 321.301 37.3913 217.573 13.2297 143.372C1.14643 106.263 -11.9571 76.5936 -25.3465 56.5147C-32.0416 46.4747 -38.7792 38.877 -45.4569 33.9413C-52.1277 29.0106 -58.6859 26.7721 -65.0725 27.3308C-71.4592 27.8896 -77.5299 31.2329 -83.2432 37.2471C-88.9623 43.2675 -94.2783 51.9198 -99.1282 62.9697C-108.828 85.0687 -116.58 116.563 -122.036 155.206C-132.945 232.476 -134.642 338.103 -124.524 453.761Z" stroke="#2B2C3B" stroke-width="2"/>
<path opacity="0.448276" d="M-123.426 465.456C-103.265 579.793 -74.2879 681.382 -43.7512 753.195C-28.4798 789.109 -12.8402 817.523 2.24832 836.359C9.79288 845.777 17.1671 852.759 24.2495 857.094C31.3248 861.424 38.0539 863.083 44.3676 861.969C50.6812 860.856 56.4366 856.996 61.6039 850.507C66.7766 844.011 71.3182 834.929 75.1866 823.498C82.923 800.638 87.9009 768.588 89.9682 729.616C94.1017 651.69 86.5871 546.316 66.4266 431.98C46.266 317.644 17.2876 216.055 -13.2491 144.242C-28.5206 108.328 -44.1601 79.9136 -59.2486 61.078C-66.7932 51.6597 -74.1674 44.6782 -81.2498 40.3432C-88.325 36.0127 -95.0533 34.3543 -101.367 35.4675C-107.681 36.5808 -113.437 40.4405 -118.604 46.9298C-123.777 53.4257 -128.319 62.5084 -132.187 73.939C-139.923 96.7992 -144.901 128.85 -146.968 167.821C-151.102 245.747 -143.586 351.12 -123.426 465.456Z" stroke="#2B2C3B" stroke-width="2"/>
<path opacity="0.482759" d="M-121.606 477.023C-91.5572 589.167 -53.8359 687.844 -17.1565 756.722C1.18695 791.168 19.2436 818.112 35.9163 835.561C44.253 844.286 52.2076 850.598 59.6409 854.299C67.0667 857.997 73.9147 859.062 80.1074 857.403C86.2999 855.743 91.697 851.397 96.2791 844.482C100.866 837.56 104.599 828.116 107.456 816.392C113.171 792.944 115.336 760.582 113.999 721.579C111.325 643.589 94.6552 539.271 64.6064 427.128C34.5575 314.984 -3.16472 216.307 -39.8441 147.429C-58.1876 112.982 -76.2442 86.0387 -92.9169 68.5898C-101.254 59.865 -109.208 53.5527 -116.642 49.8515C-124.067 46.1541 -130.914 45.0884 -137.107 46.7477C-143.3 48.407 -148.698 52.7536 -153.28 59.6687C-157.866 66.5906 -161.599 76.0346 -164.457 87.7589C-170.171 111.206 -172.337 143.569 -171 182.572C-168.326 260.562 -151.655 364.879 -121.606 477.023Z" stroke="#2B2C3B" stroke-width="2"/>
<path opacity="0.517241" d="M-119.077 488.402C-79.3686 597.5 -33.1907 692.514 9.35231 757.933C30.6281 790.649 50.9643 815.917 69.0944 831.846C78.1598 839.811 86.6343 845.406 94.3619 848.446C102.082 851.482 108.996 851.946 115.021 849.753C121.045 847.561 126.043 842.76 130.005 835.472C133.971 828.177 136.867 818.444 138.691 806.515C142.341 782.659 141.677 750.231 136.946 711.493C127.485 634.032 101.786 531.565 62.078 422.467C22.3695 313.368 -23.8094 218.355 -66.3524 152.935C-87.6283 120.219 -107.964 94.9516 -126.094 79.0222C-135.16 71.0572 -143.634 65.4622 -151.362 62.423C-159.082 59.3868 -165.996 58.922 -172.02 61.1146C-178.045 63.3074 -183.043 68.1079 -187.005 75.396C-190.971 82.6914 -193.867 92.4248 -195.691 104.353C-199.341 128.21 -198.677 160.638 -193.946 199.376C-184.485 276.836 -158.786 379.303 -119.077 488.402Z" stroke="#2B2C3B" stroke-width="2"/>
<path opacity="0.551724" d="M-115.859 499.528C-66.7933 604.75 -12.5101 695.378 35.5727 756.84C59.619 787.578 82.08 810.977 101.529 825.265C111.254 832.41 120.184 837.245 128.147 839.599C136.103 841.951 143.031 841.811 148.842 839.102C154.652 836.392 159.213 831.175 162.524 823.569C165.839 815.956 167.876 806.007 168.654 793.965C170.21 769.881 166.723 737.635 158.633 699.456C142.457 623.115 107.926 523.277 58.8599 418.055C9.79395 312.833 -44.4902 222.206 -92.5729 160.743C-116.619 130.005 -139.08 106.607 -158.53 92.318C-168.255 85.1734 -177.185 80.3383 -185.148 77.9841C-193.103 75.6324 -200.031 75.7719 -205.841 78.4813C-211.652 81.1907 -216.213 86.4087 -219.525 94.0143C-222.84 101.628 -224.876 111.576 -225.654 123.619C-227.21 147.702 -223.723 179.949 -215.633 218.127C-199.457 294.468 -164.925 394.306 -115.859 499.528Z" stroke="#2B2C3B" stroke-width="2"/>
<path opacity="0.586207" d="M-111.976 510.346C-53.9263 610.891 8.04908 696.443 61.3057 753.481C87.9394 782.005 112.354 803.358 132.975 815.897C143.286 822.167 152.603 826.205 160.741 827.856C168.871 829.506 175.761 828.763 181.313 825.557C186.866 822.351 190.954 816.756 193.59 808.891C196.229 801.018 197.39 790.929 197.116 778.865C196.567 754.737 190.283 722.918 178.897 685.59C156.128 610.949 113.027 514.5 54.9772 413.955C-3.07276 313.409 -65.049 227.858 -118.306 170.82C-144.939 142.295 -169.354 120.943 -189.975 108.404C-200.286 102.134 -209.603 98.0959 -217.741 96.4447C-225.871 94.7952 -232.76 95.538 -238.313 98.7435C-243.865 101.949 -247.954 107.545 -250.59 115.41C-253.229 123.283 -254.39 133.372 -254.116 145.436C-253.567 169.563 -247.283 201.383 -235.896 238.711C-213.128 313.352 -170.026 409.8 -111.976 510.346Z" stroke="#2B2C3B" stroke-width="2"/>
<path opacity="0.62069" d="M-107.459 520.795C-40.8666 615.899 28.3293 695.723 86.3544 747.903C115.373 773.998 141.556 793.141 163.191 803.835C174.009 809.182 183.643 812.393 191.894 813.329C200.136 814.264 206.936 812.923 212.187 809.245C217.439 805.568 221.024 799.638 222.965 791.573C224.907 783.499 225.185 773.348 223.86 761.354C221.211 737.366 212.177 706.215 197.581 670.021C168.394 597.649 117.051 505.324 50.4584 410.22C-16.1338 315.117 -85.3304 235.293 -143.356 183.114C-172.374 157.018 -198.557 137.875 -220.192 127.181C-231.01 121.834 -240.644 118.623 -248.895 117.687C-257.137 116.753 -263.936 118.093 -269.188 121.77C-274.439 125.448 -278.025 131.378 -279.966 139.443C-281.909 147.517 -282.186 157.668 -280.861 169.662C-278.212 193.65 -269.178 224.802 -254.582 260.995C-225.395 333.367 -174.051 425.692 -107.459 520.795Z" stroke="#2B2C3B" stroke-width="2"/>
<path opacity="0.655172" d="M-102.339 530.826C-27.7117 619.764 48.178 693.253 110.53 740.177C141.713 763.644 169.464 780.432 191.949 789.2C203.192 793.584 213.069 795.943 221.37 796.156C229.663 796.369 236.319 794.44 241.231 790.319C246.142 786.198 249.196 779.978 250.427 771.775C251.658 763.563 251.05 753.426 248.685 741.593C243.955 717.927 232.241 687.682 214.545 652.898C179.162 583.345 119.967 495.846 45.3397 406.908C-29.2879 317.971 -105.178 244.482 -167.53 197.558C-198.713 174.091 -226.465 157.303 -248.949 148.535C-260.192 144.151 -270.069 141.792 -278.37 141.579C-286.663 141.366 -293.319 143.294 -298.23 147.415C-303.141 151.536 -306.197 157.757 -307.427 165.96C-308.659 174.172 -308.051 184.309 -305.685 196.142C-300.955 219.808 -289.241 250.053 -271.546 284.837C-236.162 354.39 -176.967 441.888 -102.339 530.826Z" stroke="#2B2C3B" stroke-width="2"/>
<path opacity="0.689655" d="M-96.6584 540.383C-14.5633 622.479 67.4427 689.075 133.647 730.385C166.756 751.045 195.866 765.35 219.029 772.125C230.611 775.513 240.656 777.002 248.944 776.491C257.224 775.98 263.687 773.479 268.221 768.945C272.754 764.412 275.254 757.949 275.765 749.67C276.277 741.382 274.787 731.337 271.4 719.755C264.625 696.591 250.319 667.482 229.66 634.373C188.349 568.168 121.754 486.162 39.6586 404.067C-42.4365 321.971 -124.443 255.376 -190.648 214.065C-223.757 193.406 -252.866 179.1 -276.029 172.325C-287.612 168.938 -297.657 167.449 -305.945 167.96C-314.224 168.471 -320.687 170.971 -325.22 175.505C-329.754 180.038 -332.255 186.501 -332.766 194.781C-333.277 203.069 -331.788 213.114 -328.4 224.696C-321.625 247.86 -307.32 276.969 -286.66 310.078C-245.349 376.282 -178.753 458.288 -96.6584 540.383Z" stroke="#2B2C3B" stroke-width="2"/>
<path opacity="0.724138" d="M-90.4584 549.423C-1.52068 624.05 85.9775 683.246 155.531 718.629C190.314 736.324 220.56 748.039 244.225 752.769C256.059 755.134 266.195 755.742 274.407 754.51C282.611 753.28 288.831 750.225 292.952 745.314C297.073 740.403 299.001 733.746 298.789 725.454C298.576 717.153 296.216 707.276 291.832 696.033C283.064 673.548 266.276 645.796 242.81 614.614C195.886 552.262 122.397 476.371 33.459 401.744C-55.4787 327.116 -142.977 267.922 -212.53 232.538C-247.314 214.843 -277.559 203.129 -301.225 198.399C-313.059 196.033 -323.195 195.425 -331.407 196.657C-339.611 197.887 -345.831 200.942 -349.952 205.853C-354.073 210.764 -356.001 217.421 -355.789 225.713C-355.575 234.014 -353.216 243.892 -348.832 255.134C-340.064 277.619 -323.276 305.371 -299.81 336.553C-252.886 398.906 -179.396 474.795 -90.4584 549.423Z" stroke="#2B2C3B" stroke-width="2"/>
<path opacity="0.758621" d="M-83.7873 557.9C11.3162 624.493 103.641 675.837 176.013 705.024C212.206 719.62 243.358 728.653 267.346 731.303C279.34 732.628 289.491 732.35 297.564 730.408C305.63 728.467 311.56 724.881 315.238 719.629C318.915 714.378 320.255 707.579 319.321 699.337C318.385 691.086 315.174 681.452 309.827 670.634C299.132 648.999 279.989 622.816 253.894 593.797C201.715 535.772 121.891 466.576 26.7875 399.983C-68.316 333.391 -160.641 282.048 -233.013 252.861C-269.207 238.265 -300.358 229.231 -324.346 226.582C-336.34 225.257 -346.491 225.534 -354.565 227.477C-362.63 229.418 -368.56 233.003 -372.237 238.254C-375.915 243.506 -377.256 250.305 -376.321 258.548C-375.385 266.799 -372.174 276.433 -366.827 287.251C-356.133 308.886 -336.99 335.069 -310.895 364.087C-258.715 422.112 -178.891 491.308 -83.7873 557.9Z" stroke="#2B2C3B" stroke-width="2"/>
<path opacity="0.793103" d="M-76.695 565.777C23.8505 623.827 120.298 666.929 194.939 689.697C232.267 701.083 264.087 707.367 288.215 707.916C300.279 708.191 310.367 707.029 318.241 704.39C326.106 701.754 331.701 697.665 334.907 692.113C338.113 686.561 338.855 679.671 337.206 671.542C335.555 663.404 331.516 654.086 325.246 643.775C312.707 623.155 291.355 598.74 262.83 572.106C205.792 518.85 120.241 456.873 19.6956 398.823C-80.8499 340.773 -177.298 297.672 -251.939 274.904C-289.267 263.518 -321.087 257.233 -345.215 256.685C-357.279 256.41 -367.367 257.572 -375.24 260.211C-383.106 262.847 -388.701 266.935 -391.906 272.487C-395.112 278.039 -395.855 284.93 -394.206 293.059C-392.554 301.197 -388.516 310.515 -382.246 320.826C-369.707 341.446 -348.355 365.861 -319.83 392.495C-262.792 445.751 -177.24 507.727 -76.695 565.777Z" stroke="#2B2C3B" stroke-width="2"/>
<path opacity="0.827586" d="M-69.2363 573.018C35.986 622.084 135.824 656.616 212.165 672.792C250.343 680.882 282.589 684.369 306.673 682.813C318.715 682.035 328.664 679.999 336.277 676.684C343.883 673.372 349.101 668.811 351.81 663C354.52 657.19 354.659 650.262 352.308 642.307C349.953 634.344 345.118 625.414 337.974 615.689C323.685 596.239 300.286 573.778 269.549 549.732C208.086 501.649 117.459 447.365 12.2366 398.299C-92.9856 349.233 -192.824 314.702 -269.165 298.526C-307.343 290.436 -339.59 286.949 -363.673 288.505C-375.716 289.283 -385.664 291.32 -393.277 294.635C-400.883 297.946 -406.101 302.507 -408.81 308.317C-411.52 314.128 -411.66 321.057 -409.308 329.012C-406.953 336.975 -402.118 345.905 -394.974 355.63C-380.685 375.079 -357.286 397.54 -326.549 421.586C-265.086 469.669 -174.459 523.952 -69.2363 573.018Z" stroke="#2B2C3B" stroke-width="2"/>
<path opacity="0.862069" d="M-61.4677 579.594C47.6305 619.303 150.098 645.002 227.558 654.463C266.296 659.195 298.724 659.858 322.58 656.208C334.509 654.384 344.242 651.488 351.538 647.522C358.826 643.56 363.627 638.562 365.819 632.537C368.012 626.513 367.547 619.599 364.511 611.879C361.472 604.151 355.877 595.677 347.912 586.612C331.982 568.482 306.715 548.145 273.998 526.87C208.579 484.327 113.566 438.148 4.46737 398.439C-104.631 358.731 -207.099 333.032 -284.559 323.571C-323.297 318.84 -355.725 318.177 -379.581 321.826C-391.51 323.651 -401.243 326.546 -408.539 330.512C-415.826 334.474 -420.627 339.472 -422.82 345.496C-425.012 351.521 -424.548 358.435 -421.512 366.155C-418.472 373.883 -412.877 382.357 -404.912 391.423C-388.983 409.553 -363.716 429.889 -330.999 451.165C-265.58 493.708 -170.566 539.886 -61.4677 579.594Z" stroke="#2B2C3B" stroke-width="2"/>
<path opacity="0.896552" d="M-53.4477 585.481C58.6962 615.53 163.014 632.201 241.004 634.875C280.007 636.212 312.369 634.046 335.816 628.332C347.541 625.474 356.985 621.741 363.907 617.155C370.822 612.572 375.168 607.175 376.828 600.982C378.487 594.789 377.421 587.942 373.724 580.516C370.023 573.083 363.71 565.128 354.985 556.792C337.537 540.119 310.593 522.062 276.147 503.719C207.268 467.04 108.592 429.317 -3.5522 399.269C-115.696 369.22 -220.014 352.55 -298.004 349.876C-337.007 348.539 -369.369 350.704 -392.817 356.419C-404.541 359.276 -413.985 363.009 -420.907 367.596C-427.822 372.178 -432.168 377.575 -433.828 383.768C-435.487 389.96 -434.421 396.808 -430.724 404.234C-427.023 411.667 -420.71 419.622 -411.986 427.959C-394.537 444.631 -367.593 462.688 -333.147 481.031C-264.268 517.711 -165.592 555.432 -53.4477 585.481Z" stroke="#2B2C3B" stroke-width="2"/>
<path opacity="0.931035" d="M-45.2381 590.66C69.098 610.82 174.471 618.336 252.398 614.202C291.369 612.135 323.419 607.157 346.279 599.421C357.71 595.552 366.793 591.011 373.289 585.838C379.778 580.671 383.638 574.914 384.751 568.601C385.864 562.287 384.206 555.559 379.875 548.484C375.54 541.401 368.559 534.027 359.14 526.482C340.305 511.394 311.89 495.754 275.976 480.483C204.163 449.946 102.574 420.968 -11.762 400.807C-126.098 380.647 -231.472 373.132 -309.398 377.266C-348.369 379.333 -380.419 384.311 -403.28 392.047C-414.71 395.916 -423.793 400.457 -430.289 405.63C-436.778 410.797 -440.638 416.553 -441.751 422.866C-442.864 429.18 -441.206 435.909 -436.875 442.984C-432.54 450.067 -425.559 457.441 -416.141 464.985C-397.305 480.074 -368.89 495.714 -332.976 510.985C-261.163 541.522 -159.574 570.499 -45.2381 590.66Z" stroke="#2B2C3B" stroke-width="2"/>
<path opacity="0.965517" d="M-36.9011 595.114C78.757 605.233 184.384 603.536 261.654 592.627C300.297 587.171 331.791 579.418 353.89 569.719C364.94 564.869 373.592 559.553 379.613 553.834C385.627 548.121 388.97 542.05 389.529 535.663C390.088 529.277 387.849 522.719 382.919 516.048C377.983 509.37 370.385 502.633 360.345 495.937C340.266 482.548 310.596 469.445 273.488 457.361C199.287 433.2 95.559 413.186 -20.0991 403.067C-135.757 392.948 -241.385 394.646 -318.654 405.555C-357.297 411.011 -388.791 418.764 -410.89 428.463C-421.94 433.313 -430.593 438.629 -436.613 444.348C-442.627 450.061 -445.971 456.131 -446.529 462.518C-447.088 468.905 -444.85 475.464 -439.919 482.134C-434.983 488.812 -427.385 495.55 -417.346 502.245C-397.267 515.634 -367.597 528.738 -330.488 540.821C-256.287 564.983 -152.559 584.996 -36.9011 595.114Z" stroke="#2B2C3B" stroke-width="2"/>
<path d="M-28.5 598.84C87.5999 598.84 192.677 587.944 268.702 570.341C306.722 561.538 337.421 551.07 358.591 539.482C369.176 533.687 377.332 527.637 382.831 521.415C388.324 515.2 391.126 508.861 391.126 502.449C391.126 496.038 388.324 489.7 382.831 483.485C377.332 477.263 369.176 471.213 358.591 465.418C337.421 453.83 306.722 443.362 268.702 434.559C192.677 416.956 87.5999 406.059 -28.5 406.059C-144.6 406.059 -249.677 416.956 -325.702 434.559C-363.722 443.362 -394.421 453.83 -415.591 465.418C-426.176 471.213 -434.332 477.263 -439.831 483.485C-445.324 489.7 -448.126 496.038 -448.126 502.449C-448.126 508.861 -445.324 515.2 -439.831 521.415C-434.332 527.637 -426.176 533.687 -415.591 539.482C-394.421 551.07 -363.722 561.538 -325.702 570.341C-249.677 587.944 -144.6 598.84 -28.5 598.84Z" stroke="#2B2C3B" stroke-width="2"/>
</g>
</svg>
