<svg width="863" height="884" viewBox="0 0 863 884" fill="none" xmlns="http://www.w3.org/2000/svg">
<g opacity="0.5">
<path opacity="0.0344828" d="M369.542 334.579C280.604 409.207 207.114 485.097 160.191 547.449C136.724 578.631 119.936 606.383 111.168 628.868C106.784 640.111 104.425 649.988 104.212 658.289C103.999 666.581 105.927 673.238 110.048 678.149C114.169 683.06 120.39 686.115 128.593 687.345C136.805 688.577 146.942 687.969 158.775 685.604C182.441 680.873 212.686 669.159 247.47 651.464C317.023 616.081 404.522 556.886 493.459 482.258C582.397 407.631 655.886 331.74 702.81 269.388C726.276 238.206 743.065 210.454 751.832 187.969C756.217 176.726 758.576 166.849 758.789 158.548C759.001 150.256 757.074 143.6 752.953 138.689C748.832 133.777 742.611 130.722 734.407 129.492C726.195 128.26 716.059 128.868 704.225 131.233C680.56 135.964 650.314 147.678 615.531 165.373C545.978 200.756 458.479 259.952 369.542 334.579Z" stroke="#2B2C3B" stroke-width="2"/>
<path opacity="0.0689655" d="M363.342 343.618C281.247 425.713 214.651 507.719 173.34 573.923C152.68 607.032 138.375 636.141 131.6 659.305C128.212 670.887 126.723 680.932 127.234 689.22C127.745 697.5 130.246 703.963 134.78 708.496C139.313 713.03 145.776 715.53 154.055 716.041C162.343 716.552 172.388 715.063 183.971 711.676C207.134 704.901 236.243 690.595 269.352 669.936C335.557 628.625 417.564 562.029 499.659 479.934C581.754 397.839 648.349 315.833 689.66 249.628C710.319 216.519 724.625 187.41 731.4 164.246C734.787 152.664 736.277 142.619 735.765 134.331C735.254 126.052 732.754 119.589 728.22 115.056C723.687 110.522 717.224 108.021 708.944 107.51C700.656 106.999 690.611 108.488 679.029 111.876C655.865 118.651 626.756 132.956 593.647 153.616C527.443 194.926 445.437 261.522 363.342 343.618Z" stroke="#2B2C3B" stroke-width="2"/>
<path opacity="0.103448" d="M357.66 353.176C283.033 442.114 223.838 529.612 188.454 599.165C170.759 633.948 159.045 664.194 154.314 687.86C151.949 699.693 151.341 709.83 152.573 718.041C153.803 726.245 156.858 732.466 161.77 736.587C166.681 740.708 173.337 742.636 181.629 742.423C189.93 742.21 199.807 739.851 211.05 735.467C233.535 726.699 261.287 709.911 292.469 686.444C354.821 639.52 430.712 566.031 505.339 477.093C579.967 388.156 639.162 300.657 674.545 231.104C692.24 196.32 703.955 166.075 708.685 142.409C711.05 130.576 711.658 120.439 710.426 112.227C709.196 104.024 706.141 97.8034 701.23 93.6825C696.319 89.5615 689.662 87.633 681.37 87.8458C673.069 88.0588 663.192 90.4179 651.949 94.802C629.464 103.57 601.712 120.358 570.53 143.825C508.178 190.748 432.288 264.238 357.66 353.176Z" stroke="#2B2C3B" stroke-width="2"/>
<path opacity="0.137931" d="M352.541 363.206C285.949 458.309 234.605 550.634 205.418 623.006C190.822 659.199 181.788 690.351 179.139 714.338C177.814 726.333 178.092 736.484 180.034 744.557C181.975 752.623 185.561 758.553 190.812 762.231C196.064 765.908 202.863 767.248 211.105 766.314C219.356 765.378 228.99 762.167 239.808 756.82C261.443 746.125 287.626 726.982 316.645 700.887C374.67 648.708 443.866 568.884 510.459 473.78C577.051 378.677 628.394 286.352 657.581 213.98C672.177 177.786 681.211 146.635 683.86 122.647C685.185 110.653 684.908 100.501 682.965 92.4282C681.024 84.3632 677.439 78.4328 672.188 74.7556C666.936 71.0783 660.136 69.7373 651.894 70.672C643.643 71.6077 634.009 74.8187 623.191 80.166C601.556 90.8602 575.373 110.003 546.355 136.098C488.329 188.278 419.134 268.102 352.541 363.206Z" stroke="#2B2C3B" stroke-width="2"/>
<path opacity="0.172414" d="M348.023 373.656C289.973 474.201 246.871 570.649 224.103 645.29C212.717 682.618 206.433 714.438 205.884 738.565C205.609 750.63 206.771 760.718 209.41 768.591C212.046 776.456 216.135 782.052 221.687 785.258C227.239 788.463 234.129 789.206 242.258 787.556C250.396 785.905 259.714 781.867 270.025 775.597C290.645 763.058 315.06 741.706 341.694 713.181C394.951 656.143 456.927 570.592 514.977 470.046C573.027 369.501 616.128 273.052 638.896 198.412C650.282 161.084 656.567 129.264 657.115 105.136C657.39 93.0717 656.229 82.9835 653.59 75.1102C650.953 67.245 646.865 61.6497 641.313 58.4442C635.761 55.2386 628.87 54.4953 620.741 56.1449C612.603 57.7961 603.285 61.8345 592.975 68.1043C572.354 80.6434 547.939 101.996 521.305 130.52C468.049 187.559 406.073 273.11 348.023 373.656Z" stroke="#2B2C3B" stroke-width="2"/>
<path opacity="0.206897" d="M344.141 384.473C295.075 489.695 260.543 589.533 244.366 665.874C236.277 704.052 232.79 736.299 234.346 760.382C235.124 772.425 237.16 782.373 240.475 789.987C243.787 797.592 248.348 802.81 254.159 805.52C259.969 808.229 266.897 808.368 274.852 806.017C282.815 803.663 291.745 798.827 301.47 791.683C320.92 777.394 343.381 753.995 367.427 723.258C415.51 661.795 469.794 571.168 518.86 465.946C567.926 360.723 602.457 260.885 618.633 184.544C626.723 146.366 630.21 114.12 628.654 90.0359C627.875 77.9936 625.839 68.045 622.524 60.4316C619.212 52.8262 614.652 47.6084 608.842 44.899C603.031 42.1895 596.102 42.0496 588.147 44.4014C580.184 46.7557 571.254 51.5908 561.529 58.7354C542.08 73.024 519.619 96.4228 495.573 127.16C447.49 188.623 393.207 279.251 344.141 384.473Z" stroke="#2B2C3B" stroke-width="2"/>
<path opacity="0.241379" d="M340.922 395.601C301.214 504.699 275.515 607.167 266.054 684.627C261.322 723.365 260.659 755.793 264.308 779.649C266.133 791.578 269.028 801.311 272.994 808.607C276.956 815.895 281.955 820.695 287.979 822.888C294.004 825.081 300.918 824.616 308.638 821.58C316.365 818.541 324.84 812.946 333.905 804.981C352.035 789.051 372.371 763.784 393.647 731.067C436.19 665.648 482.369 570.634 522.077 461.536C561.786 352.438 587.484 249.97 596.945 172.51C601.677 133.772 602.34 101.344 598.691 77.4877C596.866 65.559 593.971 55.8257 590.005 48.5303C586.043 41.2424 581.045 36.442 575.02 34.2492C568.996 32.0565 562.081 32.521 554.361 35.5572C546.634 38.5965 538.159 44.1916 529.094 52.1565C510.964 68.0859 490.628 93.3533 469.352 126.07C426.809 191.489 380.631 286.503 340.922 395.601Z" stroke="#2B2C3B" stroke-width="2"/>
<path opacity="0.275862" d="M338.394 406.977C308.345 519.121 291.674 623.438 289 701.428C287.663 740.432 289.829 772.794 295.543 796.241C298.401 807.965 302.133 817.409 306.72 824.331C311.302 831.246 316.7 835.593 322.893 837.252C329.085 838.912 335.933 837.846 343.358 834.149C350.792 830.447 358.746 824.135 367.083 815.41C383.756 797.961 401.812 771.018 420.156 736.572C456.835 667.693 494.557 569.016 524.606 456.873C554.655 344.729 571.325 240.411 573.999 162.421C575.336 123.418 573.171 91.0558 567.456 67.6082C564.599 55.8839 560.866 46.44 556.279 39.518C551.697 32.6032 546.3 28.2566 540.107 26.5973C533.915 24.938 527.067 26.0034 519.641 29.7008C512.208 33.4021 504.253 39.7144 495.916 48.4392C479.243 65.8881 461.187 92.8318 442.843 127.278C406.164 196.156 368.443 294.833 338.394 406.977Z" stroke="#2B2C3B" stroke-width="2"/>
<path opacity="0.310345" d="M336.574 418.545C316.413 532.881 308.898 638.254 313.031 716.181C315.098 755.152 320.076 787.202 327.813 810.063C331.681 821.493 336.223 830.576 341.395 837.072C346.563 843.561 352.319 847.421 358.633 848.534C364.946 849.647 371.675 847.989 378.75 843.658C385.832 839.323 393.206 832.342 400.751 822.924C415.84 804.088 431.479 775.673 446.751 739.759C477.287 667.946 506.266 566.357 526.426 452.021C546.587 337.685 554.101 232.312 549.968 154.385C547.901 115.414 542.923 83.3637 535.186 60.5034C531.318 49.0728 526.776 39.9902 521.604 33.4942C516.436 27.0051 510.681 23.1454 504.367 22.0321C498.054 20.9189 491.324 22.577 484.249 26.9077C477.167 31.2427 469.793 38.2243 462.248 47.6424C447.16 66.4781 431.52 94.8929 416.248 130.807C385.712 202.62 356.734 304.209 336.574 418.545Z" stroke="#2B2C3B" stroke-width="2"/>
<path opacity="0.344828" d="M335.476 430.24C325.358 545.898 327.055 651.526 337.964 728.795C343.42 767.438 351.172 798.932 360.872 821.031C365.722 832.081 371.038 840.734 376.757 846.754C382.47 852.768 388.541 856.112 394.927 856.67C401.314 857.229 407.872 854.991 414.543 850.06C421.221 845.124 427.958 837.526 434.653 827.487C448.043 807.408 461.146 777.738 473.23 740.629C497.391 666.428 517.405 562.7 527.524 447.042C537.643 331.384 535.945 225.757 525.035 148.487C519.579 109.844 511.827 78.3499 502.128 56.2509C497.278 45.2009 491.962 36.5486 486.243 30.5283C480.529 24.5142 474.46 21.1708 468.073 20.612C461.686 20.0533 455.127 22.2916 448.456 27.2224C441.779 32.1582 435.041 39.7559 428.346 49.7958C414.957 69.8748 401.853 99.5446 389.77 136.653C365.608 210.854 345.595 314.582 335.476 430.24Z" stroke="#2B2C3B" stroke-width="2"/>
<path opacity="0.37931" d="M335.11 442.001C335.11 558.101 346.006 663.178 363.609 739.203C372.412 777.223 382.88 807.922 394.468 829.092C400.263 839.677 406.313 847.833 412.535 853.332C418.75 858.825 425.089 861.627 431.5 861.627C437.911 861.627 444.25 858.825 450.465 853.332C456.687 847.833 462.737 839.677 468.532 829.092C480.12 807.922 490.588 777.223 499.391 739.203C516.994 663.178 527.891 558.101 527.891 442.001C527.891 325.901 516.994 220.823 499.391 144.799C490.588 106.778 480.12 76.0795 468.532 54.9099C462.737 44.3247 456.687 36.1687 450.465 30.6697C444.25 25.1764 437.912 22.3748 431.5 22.3748C425.089 22.3748 418.75 25.1762 412.535 30.6697C406.313 36.1687 400.263 44.3247 394.468 54.9099C382.88 76.0795 372.412 106.778 363.609 144.799C346.006 220.823 335.11 325.901 335.11 442.001Z" stroke="#2B2C3B" stroke-width="2"/>
<path opacity="0.413793" d="M335.476 453.761C345.595 569.419 365.608 673.147 389.77 747.348C401.853 784.457 414.957 814.126 428.346 834.205C435.041 844.245 441.779 851.843 448.457 856.779C455.127 861.71 461.686 863.948 468.073 863.389C474.46 862.83 480.53 859.487 486.243 853.473C491.962 847.453 497.278 838.8 502.128 827.75C511.827 805.651 519.58 774.157 525.035 735.514C535.945 658.245 537.643 552.617 527.524 436.959C517.405 321.301 497.391 217.573 473.23 143.372C461.146 106.263 448.043 76.5936 434.653 56.5147C427.958 46.4747 421.221 38.877 414.543 33.9413C407.872 29.0106 401.314 26.7721 394.927 27.3308C388.541 27.8896 382.47 31.2329 376.757 37.2471C371.038 43.2675 365.722 51.9198 360.872 62.9697C351.172 85.0687 343.42 116.563 337.964 155.206C327.055 232.476 325.358 338.103 335.476 453.761Z" stroke="#2B2C3B" stroke-width="2"/>
<path opacity="0.448276" d="M336.574 465.456C356.735 579.793 385.712 681.382 416.249 753.195C431.52 789.109 447.16 817.523 462.248 836.359C469.793 845.777 477.167 852.759 484.25 857.094C491.325 861.424 498.054 863.083 504.368 861.969C510.681 860.856 516.437 856.996 521.604 850.507C526.777 844.011 531.318 834.929 535.187 823.498C542.923 800.638 547.901 768.588 549.968 729.616C554.102 651.69 546.587 546.316 526.427 431.98C506.266 317.644 477.288 216.055 446.751 144.242C431.479 108.328 415.84 79.9136 400.751 61.078C393.207 51.6597 385.833 44.6782 378.75 40.3432C371.675 36.0127 364.947 34.3543 358.633 35.4675C352.319 36.5808 346.563 40.4405 341.396 46.9298C336.223 53.4257 331.681 62.5084 327.813 73.939C320.077 96.7992 315.099 128.85 313.032 167.821C308.898 245.747 316.414 351.12 336.574 465.456Z" stroke="#2B2C3B" stroke-width="2"/>
<path opacity="0.482759" d="M338.394 477.023C368.443 589.167 406.164 687.844 442.843 756.722C461.187 791.168 479.244 818.112 495.916 835.561C504.253 844.286 512.208 850.598 519.641 854.299C527.067 857.997 533.915 859.062 540.107 857.403C546.3 855.743 551.697 851.397 556.279 844.482C560.866 837.56 564.599 828.116 567.456 816.392C573.171 792.944 575.336 760.582 573.999 721.579C571.325 643.589 554.655 539.271 524.606 427.128C494.557 314.984 456.835 216.307 420.156 147.429C401.812 112.982 383.756 86.0387 367.083 68.5898C358.746 59.865 350.792 53.5527 343.358 49.8515C335.933 46.1541 329.086 45.0884 322.893 46.7477C316.7 48.407 311.302 52.7536 306.72 59.6687C302.134 66.5906 298.401 76.0346 295.543 87.7589C289.829 111.206 287.663 143.569 289 182.572C291.674 260.562 308.345 364.879 338.394 477.023Z" stroke="#2B2C3B" stroke-width="2"/>
<path opacity="0.517241" d="M340.923 488.402C380.631 597.5 426.809 692.514 469.352 757.933C490.628 790.649 510.964 815.917 529.094 831.846C538.16 839.811 546.634 845.406 554.362 848.446C562.082 851.482 568.996 851.946 575.021 849.753C581.045 847.561 586.043 842.76 590.005 835.472C593.971 828.177 596.867 818.444 598.691 806.515C602.341 782.659 601.677 750.231 596.946 711.493C587.485 634.032 561.786 531.565 522.078 422.467C482.369 313.368 436.191 218.355 393.648 152.935C372.372 120.219 352.036 94.9516 333.906 79.0222C324.84 71.0572 316.366 65.4622 308.638 62.423C300.918 59.3868 294.004 58.922 287.98 61.1146C281.955 63.3074 276.957 68.1079 272.995 75.396C269.029 82.6914 266.133 92.4248 264.309 104.353C260.659 128.21 261.323 160.638 266.054 199.376C275.515 276.836 301.214 379.303 340.923 488.402Z" stroke="#2B2C3B" stroke-width="2"/>
<path opacity="0.551724" d="M344.141 499.528C393.207 604.75 447.49 695.378 495.573 756.84C519.619 787.578 542.08 810.977 561.529 825.265C571.254 832.41 580.184 837.245 588.147 839.599C596.103 841.951 603.031 841.811 608.842 839.102C614.652 836.392 619.213 831.175 622.524 823.569C625.839 815.956 627.876 806.007 628.654 793.965C630.21 769.881 626.723 737.635 618.633 699.456C602.457 623.115 567.926 523.277 518.86 418.055C469.794 312.833 415.51 222.206 367.427 160.743C343.381 130.005 320.92 106.607 301.47 92.318C291.745 85.1734 282.815 80.3383 274.852 77.9841C266.897 75.6324 259.969 75.7719 254.159 78.4813C248.348 81.1907 243.787 86.4087 240.475 94.0143C237.16 101.628 235.124 111.576 234.346 123.619C232.79 147.702 236.277 179.949 244.367 218.127C260.543 294.468 295.075 394.306 344.141 499.528Z" stroke="#2B2C3B" stroke-width="2"/>
<path opacity="0.586207" d="M348.024 510.346C406.074 610.891 468.049 696.443 521.306 753.481C547.939 782.005 572.354 803.358 592.975 815.897C603.286 822.167 612.603 826.205 620.741 827.856C628.871 829.506 635.761 828.763 641.313 825.557C646.866 822.351 650.954 816.756 653.59 808.891C656.229 801.018 657.39 790.929 657.116 778.865C656.567 754.737 650.283 722.918 638.897 685.59C616.128 610.949 573.027 514.5 514.977 413.955C456.927 313.409 394.951 227.858 341.694 170.82C315.061 142.295 290.646 120.943 270.025 108.404C259.714 102.134 250.397 98.0959 242.259 96.4447C234.129 94.7952 227.24 95.538 221.687 98.7435C216.135 101.949 212.046 107.545 209.41 115.41C206.771 123.283 205.61 133.372 205.884 145.436C206.433 169.563 212.717 201.383 224.104 238.711C246.872 313.352 289.974 409.8 348.024 510.346Z" stroke="#2B2C3B" stroke-width="2"/>
<path opacity="0.62069" d="M352.541 520.795C419.133 615.899 488.329 695.723 546.354 747.903C575.373 773.998 601.556 793.141 623.191 803.835C634.009 809.182 643.643 812.393 651.894 813.329C660.136 814.264 666.936 812.923 672.187 809.245C677.439 805.568 681.024 799.638 682.965 791.573C684.907 783.499 685.185 773.348 683.86 761.354C681.211 737.366 672.177 706.215 657.581 670.021C628.394 597.649 577.051 505.324 510.458 410.22C443.866 315.117 374.67 235.293 316.644 183.114C287.626 157.018 261.443 137.875 239.808 127.181C228.99 121.834 219.356 118.623 211.105 117.687C202.863 116.753 196.064 118.093 190.812 121.77C185.561 125.448 181.975 131.378 180.034 139.443C178.091 147.517 177.814 157.668 179.139 169.662C181.788 193.65 190.822 224.802 205.418 260.995C234.605 333.367 285.949 425.692 352.541 520.795Z" stroke="#2B2C3B" stroke-width="2"/>
<path opacity="0.655172" d="M357.661 530.826C432.288 619.764 508.178 693.253 570.53 740.177C601.713 763.644 629.464 780.432 651.949 789.2C663.192 793.584 673.069 795.943 681.37 796.156C689.663 796.369 696.319 794.44 701.231 790.319C706.142 786.198 709.196 779.978 710.427 771.775C711.658 763.563 711.05 753.426 708.685 741.593C703.955 717.927 692.241 687.682 674.545 652.898C639.162 583.345 579.967 495.846 505.34 406.908C430.712 317.971 354.822 244.482 292.47 197.558C261.287 174.091 233.535 157.303 211.051 148.535C199.808 144.151 189.931 141.792 181.63 141.579C173.337 141.366 166.681 143.294 161.77 147.415C156.859 151.536 153.803 157.757 152.573 165.96C151.341 174.172 151.949 184.309 154.315 196.142C159.045 219.808 170.759 250.053 188.454 284.837C223.838 354.39 283.033 441.888 357.661 530.826Z" stroke="#2B2C3B" stroke-width="2"/>
<path opacity="0.689655" d="M363.342 540.383C445.437 622.479 527.443 689.075 593.647 730.385C626.756 751.045 655.866 765.35 679.029 772.125C690.611 775.513 700.656 777.002 708.944 776.491C717.224 775.98 723.687 773.479 728.221 768.945C732.754 764.412 735.254 757.949 735.765 749.67C736.277 741.382 734.787 731.337 731.4 719.755C724.625 696.591 710.319 667.482 689.66 634.373C648.349 568.168 581.754 486.162 499.659 404.067C417.564 321.971 335.557 255.376 269.352 214.065C236.243 193.406 207.134 179.1 183.971 172.325C172.388 168.938 162.343 167.449 154.055 167.96C145.776 168.471 139.313 170.971 134.78 175.505C130.246 180.038 127.745 186.501 127.234 194.781C126.723 203.069 128.212 213.114 131.6 224.696C138.375 247.86 152.68 276.969 173.34 310.078C214.651 376.282 281.247 458.288 363.342 540.383Z" stroke="#2B2C3B" stroke-width="2"/>
<path opacity="0.724138" d="M369.542 549.423C458.479 624.05 545.977 683.246 615.531 718.629C650.314 736.324 680.56 748.039 704.225 752.769C716.059 755.134 726.195 755.742 734.407 754.51C742.611 753.28 748.831 750.225 752.952 745.314C757.073 740.403 759.001 733.746 758.789 725.454C758.576 717.153 756.216 707.276 751.832 696.033C743.064 673.548 726.276 645.796 702.81 614.614C655.886 552.262 582.397 476.371 493.459 401.744C404.521 327.116 317.023 267.922 247.47 232.538C212.686 214.843 182.441 203.129 158.775 198.399C146.941 196.033 136.805 195.425 128.593 196.657C120.389 197.887 114.169 200.942 110.048 205.853C105.927 210.764 103.999 217.421 104.211 225.713C104.425 234.014 106.784 243.892 111.168 255.134C119.936 277.619 136.724 305.371 160.19 336.553C207.114 398.906 280.604 474.795 369.542 549.423Z" stroke="#2B2C3B" stroke-width="2"/>
<path opacity="0.758621" d="M376.213 557.9C471.316 624.493 563.641 675.837 636.013 705.024C672.206 719.62 703.358 728.653 727.346 731.303C739.34 732.628 749.491 732.35 757.564 730.408C765.63 728.467 771.56 724.881 775.238 719.629C778.915 714.378 780.255 707.579 779.321 699.337C778.385 691.086 775.174 681.452 769.827 670.634C759.132 648.999 739.989 622.816 713.894 593.797C661.715 535.772 581.891 466.576 486.788 399.983C391.684 333.391 299.359 282.048 226.987 252.861C190.793 238.265 159.642 229.231 135.654 226.582C123.66 225.257 113.509 225.534 105.435 227.477C97.3702 229.418 91.4399 233.003 87.7626 238.254C84.0854 243.506 82.7444 250.305 83.6791 258.548C84.6148 266.799 87.8258 276.433 93.1731 287.251C103.867 308.886 123.01 335.069 149.105 364.087C201.285 422.112 281.109 491.308 376.213 557.9Z" stroke="#2B2C3B" stroke-width="2"/>
<path opacity="0.793103" d="M383.305 565.777C483.85 623.827 580.298 666.929 654.939 689.697C692.267 701.083 724.087 707.367 748.215 707.916C760.279 708.191 770.367 707.029 778.241 704.39C786.106 701.754 791.701 697.665 794.907 692.113C798.113 686.561 798.855 679.671 797.206 671.542C795.555 663.404 791.516 654.086 785.246 643.775C772.707 623.155 751.355 598.74 722.83 572.106C665.792 518.85 580.241 456.873 479.696 398.823C379.15 340.773 282.702 297.672 208.061 274.904C170.733 263.518 138.913 257.233 114.785 256.685C102.721 256.41 92.6329 257.572 84.7596 260.211C76.8945 262.847 71.2991 266.935 68.0936 272.487C64.888 278.039 64.1447 284.93 65.7943 293.059C67.4455 301.197 71.4839 310.515 77.7537 320.826C90.2929 341.446 111.645 365.861 140.17 392.495C197.208 445.751 282.76 507.727 383.305 565.777Z" stroke="#2B2C3B" stroke-width="2"/>
<path opacity="0.827586" d="M390.764 573.018C495.986 622.084 595.824 656.616 672.165 672.792C710.343 680.882 742.589 684.369 766.673 682.813C778.715 682.035 788.664 679.999 796.277 676.684C803.883 673.372 809.101 668.811 811.81 663C814.52 657.19 814.659 650.262 812.308 642.307C809.953 634.344 805.118 625.414 797.974 615.689C783.685 596.239 760.286 573.778 729.549 549.732C668.086 501.649 577.459 447.365 472.237 398.299C367.014 349.233 267.176 314.702 190.835 298.526C152.657 290.436 120.41 286.949 96.3268 288.505C84.2845 289.283 74.3359 291.32 66.7225 294.635C59.1171 297.946 53.8993 302.507 51.1899 308.317C48.4804 314.128 48.3405 321.057 50.6923 329.012C53.0466 336.975 57.8817 345.905 65.0262 355.63C79.3149 375.079 102.714 397.54 133.451 421.586C194.914 469.669 285.541 523.952 390.764 573.018Z" stroke="#2B2C3B" stroke-width="2"/>
<path opacity="0.862069" d="M398.532 579.594C507.631 619.303 610.098 645.002 687.558 654.463C726.296 659.195 758.724 659.858 782.58 656.208C794.509 654.384 804.242 651.488 811.538 647.522C818.826 643.56 823.627 638.562 825.819 632.537C828.012 626.513 827.547 619.599 824.511 611.879C821.472 604.151 815.877 595.677 807.912 586.612C791.982 568.482 766.715 548.145 733.998 526.87C668.579 484.327 573.566 438.148 464.467 398.439C355.369 358.731 252.901 333.032 175.441 323.571C136.703 318.84 104.275 318.177 80.4189 321.826C68.4901 323.651 58.7569 326.546 51.4614 330.512C44.1736 334.474 39.3731 339.472 37.1804 345.496C34.9877 351.521 35.4522 358.435 38.4884 366.155C41.5277 373.883 47.1227 382.357 55.0877 391.423C71.0171 409.553 96.2845 429.889 129.001 451.165C194.42 493.708 289.434 539.886 398.532 579.594Z" stroke="#2B2C3B" stroke-width="2"/>
<path opacity="0.896552" d="M406.552 585.481C518.696 615.53 623.014 632.201 701.004 634.875C740.007 636.212 772.369 634.046 795.816 628.332C807.541 625.474 816.985 621.741 823.907 617.155C830.822 612.572 835.168 607.175 836.828 600.982C838.487 594.789 837.421 587.942 833.724 580.516C830.023 573.083 823.71 565.128 814.985 556.792C797.537 540.119 770.593 522.062 736.147 503.719C667.268 467.04 568.592 429.317 456.448 399.269C344.304 369.22 239.986 352.55 161.996 349.876C122.993 348.539 90.631 350.704 67.1834 356.419C55.4591 359.276 46.0152 363.009 39.0932 367.596C32.1784 372.178 27.8318 377.575 26.1725 383.768C24.5132 389.96 25.5786 396.808 29.276 404.234C32.9773 411.667 39.2896 419.622 48.0144 427.959C65.4633 444.631 92.407 462.688 126.853 481.031C195.732 517.711 294.408 555.432 406.552 585.481Z" stroke="#2B2C3B" stroke-width="2"/>
<path opacity="0.931035" d="M414.762 590.66C529.098 610.82 634.471 618.336 712.398 614.202C751.369 612.135 783.419 607.157 806.279 599.421C817.71 595.552 826.793 591.011 833.289 585.838C839.778 580.671 843.638 574.914 844.751 568.601C845.864 562.287 844.206 555.559 839.875 548.484C835.54 541.401 828.559 534.027 819.14 526.482C800.305 511.394 771.89 495.754 735.976 480.483C664.163 449.946 562.574 420.968 448.238 400.807C333.902 380.647 228.528 373.132 150.602 377.266C111.631 379.333 79.5806 384.311 56.7203 392.047C45.2897 395.916 36.2071 400.457 29.7112 405.63C23.222 410.797 19.3624 416.553 18.2491 422.866C17.1358 429.18 18.794 435.909 23.1246 442.984C27.4596 450.067 34.4412 457.441 43.8593 464.985C62.695 480.074 91.1099 495.714 127.024 510.985C198.837 541.522 300.426 570.499 414.762 590.66Z" stroke="#2B2C3B" stroke-width="2"/>
<path opacity="0.965517" d="M423.099 595.114C538.757 605.233 644.384 603.536 721.654 592.627C760.297 587.171 791.791 579.418 813.89 569.719C824.94 564.869 833.592 559.553 839.613 553.834C845.627 548.121 848.97 542.05 849.529 535.663C850.088 529.277 847.849 522.719 842.919 516.048C837.983 509.37 830.385 502.633 820.345 495.937C800.266 482.548 770.596 469.445 733.488 457.361C659.287 433.2 555.559 413.186 439.901 403.067C324.243 392.948 218.615 394.646 141.346 405.555C102.703 411.011 71.2085 418.764 49.1095 428.463C38.0595 433.313 29.4073 438.629 23.3869 444.348C17.3728 450.061 14.0295 456.131 13.4707 462.518C12.9119 468.905 15.1503 475.464 20.0811 482.134C25.0168 488.812 32.6146 495.55 42.6545 502.245C62.7335 515.634 92.4033 528.738 129.512 540.821C203.713 564.983 307.441 584.996 423.099 595.114Z" stroke="#2B2C3B" stroke-width="2"/>
<path d="M431.5 598.84C547.6 598.84 652.677 587.944 728.702 570.341C766.722 561.538 797.421 551.07 818.591 539.482C829.176 533.687 837.332 527.637 842.831 521.415C848.324 515.2 851.126 508.861 851.126 502.449C851.126 496.038 848.324 489.7 842.831 483.485C837.332 477.263 829.176 471.213 818.591 465.418C797.421 453.83 766.722 443.362 728.702 434.559C652.677 416.956 547.6 406.059 431.5 406.059C315.4 406.059 210.323 416.956 134.298 434.559C96.2776 443.362 65.5787 453.83 44.4092 465.418C33.8239 471.213 25.6679 477.263 20.1689 483.485C14.6757 489.7 11.8741 496.038 11.874 502.449C11.874 508.861 14.6755 515.2 20.1689 521.415C25.6679 527.637 33.824 533.687 44.4092 539.482C65.5787 551.07 96.2777 561.538 134.298 570.341C210.323 587.944 315.4 598.84 431.5 598.84Z" stroke="#2B2C3B" stroke-width="2"/>
</g>
</svg>
