<svg width="26" height="26" viewBox="0 0 26 26" fill="none" xmlns="http://www.w3.org/2000/svg">
<path d="M13.0003 2.16684C7.02033 2.16684 2.16699 7.02017 2.16699 13.0002C2.16699 18.9802 7.02033 23.8335 13.0003 23.8335C18.9803 23.8335 23.8337 18.9802 23.8337 13.0002C23.8337 7.02017 18.9803 2.16684 13.0003 2.16684ZM17.9078 9.24101L16.2937 17.0085C16.1745 17.5718 15.8495 17.691 15.362 17.4527C14.6037 16.9327 13.8345 16.4235 13.0653 15.9143C12.8812 15.7843 12.6212 15.7952 12.437 15.936L11.3645 16.7593C11.0612 15.9468 10.747 15.1343 10.4328 14.3327C10.3787 14.181 10.2703 14.0618 10.1187 14.0077C9.53366 13.8018 8.20115 13.3252 7.44282 13.0002C7.31282 12.946 7.08533 12.8377 7.06366 12.6752C7.05283 12.5127 7.21532 12.3285 7.56199 12.1985L17.2253 8.48268C17.6695 8.32018 18.0703 8.60184 17.9078 9.24101Z" fill="white"/>
</svg>
