<svg width="26" height="26" viewBox="0 0 26 26" fill="none" xmlns="http://www.w3.org/2000/svg">
<path d="M18.5687 2.16684H7.43199C4.52866 2.16684 2.16699 4.52851 2.16699 7.43184V18.5685C2.16699 21.4718 4.52866 23.8335 7.43199 23.8335H18.5687C21.472 23.8335 23.8337 21.4718 23.8337 18.5685V7.43184C23.8337 4.52851 21.472 2.16684 18.5687 2.16684ZM18.1895 9.60933C18.8612 12.2527 18.1137 15.026 16.207 16.7268C13.7587 18.9152 9.78282 19.0127 6.86866 16.7377C7.08532 16.7702 7.28033 16.781 7.45366 16.7702C8.8295 16.716 9.77199 15.6218 10.0645 15.2535C9.55532 14.8093 8.76449 14.0293 8.21199 12.8268C7.43199 11.1585 7.50783 9.58767 7.63783 8.69934C7.67033 8.52601 7.88699 8.46101 8.01699 8.60184C8.41782 9.05684 9.06783 9.67434 10.0212 10.1185C11.0503 10.5952 11.982 10.6818 12.5128 10.6818C12.4803 9.39267 13.2495 8.23351 14.4087 7.78934C15.427 7.38851 16.6078 7.616 17.442 8.37434C18.0053 8.35267 18.5687 8.34183 19.132 8.32017C18.8178 8.7535 18.5037 9.176 18.1895 9.60933Z" fill="white"/>
</svg>
