<svg width="26" height="26" viewBox="0 0 26 26" fill="none" xmlns="http://www.w3.org/2000/svg">
<path d="M23.8118 12.3608C23.4435 6.07751 17.7343 1.23502 11.1585 2.31835C6.63015 3.06585 3.00099 6.73833 2.29682 11.2667C1.88515 13.8883 2.42684 16.3692 3.60768 18.4167L2.6435 22.0025C2.42683 22.815 3.17431 23.5517 3.97597 23.3242L7.50765 22.3492C9.11098 23.2917 10.9851 23.8333 12.9893 23.8333C19.0993 23.8333 24.1693 18.4492 23.8118 12.3608ZM18.2868 17.03C18.1893 17.225 18.0701 17.4092 17.9185 17.5825C17.6476 17.875 17.3551 18.0917 17.0301 18.2217C16.7051 18.3625 16.3476 18.4275 15.9685 18.4275C15.416 18.4275 14.8201 18.2975 14.2026 18.0267C13.5743 17.7559 12.9568 17.3983 12.3393 16.9542C11.711 16.4992 11.126 15.99 10.5627 15.4375C9.99933 14.8742 9.50097 14.2783 9.04597 13.6608C8.6018 13.0433 8.24432 12.4258 7.98432 11.8083C7.72432 11.1908 7.59434 10.595 7.59434 10.0317C7.59434 9.66335 7.65933 9.30585 7.78933 8.98085C7.91933 8.64501 8.12518 8.34168 8.41768 8.07085C8.76435 7.72418 9.14349 7.56168 9.54432 7.56168C9.69599 7.56168 9.84763 7.59418 9.98846 7.65918C10.1293 7.72418 10.2593 7.82168 10.3568 7.96251L11.6135 9.73916C11.711 9.87999 11.7868 9.99917 11.8301 10.1183C11.8843 10.2375 11.906 10.3458 11.906 10.4542C11.906 10.5842 11.8627 10.7142 11.7868 10.8442C11.711 10.9742 11.6135 11.1042 11.4835 11.2342L11.0718 11.6675C11.0068 11.7325 10.9852 11.7975 10.9852 11.8842C10.9852 11.9275 10.996 11.9708 11.0068 12.0142C11.0285 12.0575 11.0393 12.09 11.0502 12.1225C11.1477 12.3067 11.321 12.5342 11.5593 12.8158C11.8085 13.0975 12.0685 13.39 12.3502 13.6717C12.6427 13.9642 12.9243 14.2242 13.2168 14.4733C13.4985 14.7117 13.7368 14.8742 13.921 14.9717C13.9535 14.9825 13.986 15.0042 14.0185 15.015C14.0618 15.0367 14.1052 15.0367 14.1593 15.0367C14.2568 15.0367 14.3219 15.0042 14.3869 14.9392L14.7985 14.5275C14.9393 14.3867 15.0693 14.2892 15.1885 14.2242C15.3185 14.1483 15.4377 14.105 15.5785 14.105C15.6868 14.105 15.7952 14.1267 15.9143 14.1808C16.0335 14.235 16.1635 14.3 16.2935 14.3975L18.0918 15.6758C18.2327 15.7733 18.3301 15.8925 18.3951 16.0225C18.4493 16.1633 18.4818 16.2933 18.4818 16.445C18.4168 16.6292 18.3735 16.835 18.2868 17.03Z" fill="white"/>
</svg>
