<svg width="20" height="22" viewBox="0 0 20 22" fill="none" xmlns="http://www.w3.org/2000/svg">
<path d="M12.1436 14.7744L12.2412 14.7832C12.4551 14.8246 12.572 15.0001 12.5723 15.1455V22H7.42969V15.1455C7.42997 14.9793 7.58265 14.7744 7.8584 14.7744H12.1436ZM14.5723 21.998V15.1455C14.572 13.8822 13.582 12.9036 12.3857 12.7861L12.1436 12.7744H7.8584C6.55659 12.7744 5.42994 13.7979 5.42969 15.1455V21.999C2.92462 21.998 1.64375 21.9705 0.836914 21.1963C0.000196108 20.3933 7.10642e-10 19.1011 0 16.5166V10.7041C0 8.84297 -0.000438179 7.91173 0.391602 7.09375C0.783686 6.27575 1.5205 5.67022 2.99316 4.45898L4.42188 3.28418C7.08376 1.09484 8.41461 1.09749e-07 10 0C11.5854 0 12.9162 1.09484 15.5781 3.28418L17.0068 4.45898C18.4795 5.67022 19.2163 6.27575 19.6084 7.09375C20.0004 7.91173 20 8.84297 20 10.7041V16.5166C20 19.1011 19.9998 20.3933 19.1631 21.1963C18.3565 21.9703 17.076 21.997 14.5723 21.998Z" fill="white"/>
</svg>
